{
    "accessors": [
        {
            "bufferView": 0,
            "byteOffset": 0,
            "componentType": 5126,
            "count": 10205,
            "max": [
                1.04365873336792,
                3.13603138923645,
                1.0329358577728271
            ],
            "min": [
                -1.5877583026885986,
                -4.5851240158081055,
                -1.02493417263031
            ],
            "name": "accessor_buffer_Frame9.003_0",
            "type": "VEC3"
        },
        {
            "bufferView": 0,
            "byteOffset": 12,
            "componentType": 5126,
            "count": 10205,
            "max": [
                0.9999667406082153,
                0.9893607497215271,
                0.9999869465827942
            ],
            "min": [
                -0.9999791979789734,
                -0.9965816736221313,
                -0.9999712109565735
            ],
            "name": "accessor_buffer_Frame9.003_1",
            "type": "VEC3"
        },
        {
            "bufferView": 0,
            "byteOffset": 24,
            "componentType": 5126,
            "count": 10205,
            "max": [
                0,
                1.0
            ],
            "min": [
                0.0,
                1.0
            ],
            "name": "accessor_buffer_Frame9.003_2",
            "type": "VEC2"
        },
        {
            "bufferView": 1,
            "byteOffset": 0,
            "componentType": 5123,
            "count": 60000,
            "max": [
                10204
            ],
            "min": [
                0
            ],
            "name": "accessor_buffer_Frame9.003_3",
            "type": "SCALAR"
        },
        {
            "bufferView": 2,
            "byteOffset": 0,
            "componentType": 5121,
            "count": 10205,
            "max": [
                2,
                2,
                2,
                0
            ],
            "min": [
                0,
                0,
                0,
                0
            ],
            "name": "accessor_buffer_Frame9.003_skin_0",
            "type": "VEC4"
        },
        {
            "bufferView": 2,
            "byteOffset": 16,
            "componentType": 5126,
            "count": 10205,
            "max": [
                0.9991020560264587,
                0.49902185797691345,
                0.0580328144133091,
                0
            ],
            "min": [
                0.4933014214038849,
                0.0,
                0.0,
                0.0
            ],
            "name": "accessor_buffer_Frame9.003_skin_1",
            "type": "VEC4"
        },
        {
            "bufferView": 3,
            "byteOffset": 0,
            "componentType": 5126,
            "count": 3,
            "max": [
                1.0,
                3.552713678800501e-15,
                1.9314121857405553e-07,
                0,
                0,
                1.0,
                0.2659803628921509,
                0,
                0,
                0,
                1.0,
                0,
                1.2071916444256203e-07,
                2.544461965560913,
                0,
                1.0
            ],
            "min": [
                1.0,
                0.0,
                1.1920928955078125e-07,
                0.0,
                -5.137177438996332e-08,
                0.9639784097671509,
                1.6292068494294654e-07,
                0.0,
                -1.8618395358771522e-07,
                -0.2659803628921509,
                0.9639784693717957,
                0.0,
                0.0,
                -2.265266180038452,
                -0.625030517578125,
                1.0
            ],
            "name": "accessor_buffer_IBM_Ghost.001_skin_0",
            "type": "MAT4"
        }
    ],
    "asset": {
        "version": "2.0"
    },
    "bufferViews": [
        {
            "buffer": 0,
            "byteLength": 326560,
            "byteOffset": 0,
            "byteStride": 32,
            "name": "bufferView_buffer_Frame9.003_0",
            "target": 34962
        },
        {
            "buffer": 0,
            "byteLength": 120000,
            "byteOffset": 326560,
            "name": "bufferView_buffer_Frame9.003_1",
            "target": 34963
        },
        {
            "buffer": 0,
            "byteLength": 326560,
            "byteOffset": 446560,
            "byteStride": 32,
            "name": "bufferView_buffer_Frame9.003_skin_0",
            "target": 34962
        },
        {
            "buffer": 0,
            "byteLength": 192,
            "byteOffset": 773120,
            "byteStride": 64,
            "name": "bufferView_buffer_IBM_Ghost.001_skin_0"
        }
    ],
    "buffers": [
        {
            "byteLength": 773312,
            "name": "buffer_combined",
            "uri": "buffer_combined.bin"
        }
    ],
    "cameras": [
        {
            "name": "Camera",
            "perspective": {
                "aspectRatio": 1.703595982340029,
                "yfov": 0.5033799409866333,
                "zfar": 100.0,
                "znear": 0.10000000149011612
            },
            "type": "perspective"
        }
    ],
    "materials": [
        {
            "emissiveFactor": [
                0.0,
                0.0,
                0.0
            ],
            "name": "initialShadingGroup",
            "pbrMetallicRoughness": {
                "baseColorFactor": [
                    0.64000004529953,
                    0.64000004529953,
                    0.64000004529953,
                    1.0
                ],
                "metallicFactor": 0.0,
                "roughnessFactor": 1.0
            }
        }
    ],
    "meshes": [
        {
            "name": "Frame9.003",
            "primitives": [
                {
                    "attributes": {
                        "JOINTS_0": 4,
                        "NORMAL": 1,
                        "POSITION": 0,
                        "TEXCOORD_0": 2,
                        "WEIGHTS_0": 5
                    },
                    "indices": 3,
                    "material": 0,
                    "mode": 4
                }
            ]
        }
    ],
    "nodes": [
        {
            "camera": 0,
            "name": "Camera",
            "rotation": [
                0.48170700669288635,
                0.21292175352573395,
                0.3342514932155609,
                0.7816000580787659
            ],
            "scale": [
                1.0,
                0.9999999403953552,
                1.0
            ],
            "translation": [
                4.567498207092285,
                -6.9476318359375,
                11.371667861938477
            ]
        },
        {
            "children": [
                2,
                4
            ],
            "name": "Ghost",
            "rotation": [
                0.0,
                0.0,
                0.0,
                1.0
            ],
            "scale": [
                1.0,
                1.0,
                1.0
            ],
            "translation": [
                0.0,
                0.0,
                0.0
            ]
        },
        {
            "mesh": 0,
            "name": "Ghost.001",
            "rotation": [
                0.7071068286895752,
                0.0,
                0.0,
                0.7071067094802856
            ],
            "scale": [
                1.0,
                1.0,
                1.0
            ],
            "skin": 0,
            "translation": [
                0.0,
                0.0,
                0.0
            ]
        },
        {
            "name": "Lamp",
            "rotation": [
                0.16907575726509094,
                0.27217137813568115,
                0.7558802962303162,
                0.570947527885437
            ],
            "scale": [
                1.0,
                0.9999999403953552,
                1.0
            ],
            "translation": [
                1.162611484527588,
                0.5654616355895996,
                11.931863784790039
            ]
        },
        {
            "children": [
                5
            ],
            "name": "Ghost_Legs",
            "rotation": [
                0.7071068286895752,
                4.214685134229512e-08,
                4.214685134229512e-08,
                0.7071068286895752
            ],
            "scale": [
                1.0,
                1.0,
                1.0
            ],
            "translation": [
                0.0,
                0.0,
                -2.544461965560913
            ]
        },
        {
            "children": [
                6
            ],
            "name": "Ghost_Body",
            "rotation": [
                0.0,
                2.468905080377226e-08,
                0.0,
                1.0
            ],
            "scale": [
                1.0,
                1.0,
                1.0
            ],
            "translation": [
                0.0,
                2.583865165710449,
                0.0
            ]
        },
        {
            "name": "Ghost_Head",
            "rotation": [
                -0.13420414924621582,
                1.2165848772838217e-08,
                -2.427274381489042e-08,
                0.9909537434577942
            ],
            "scale": [
                1.0,
                1.0,
                0.9999999403953552
            ],
            "translation": [
                0.0,
                2.3105103969573975,
                0.0
            ]
        },
        {
            "children": [
                1
            ],
            "matrix": [
                1.0,
                0.0,
                0.0,
                0.0,
                0.0,
                0.0,
                -1.0,
                0.0,
                0.0,
                1.0,
                0.0,
                0.0,
                0.0,
                0.0,
                0.0,
                1.0
            ],
            "name": "Scene_root"
        }
    ],
    "samplers": [
        {
            "name": "default"
        }
    ],
    "scene": 0,
    "scenes": [
        {
            "extras": {
                "active_camera": 0,
                "background_color": [
                    0.05087608844041824,
                    0.05087608844041824,
                    0.05087608844041824
                ],
                "frames_per_second": 24,
                "hidden_nodes": [
                    3,
                    0
                ]
            },
            "name": "Scene",
            "nodes": [
                7
            ]
        }
    ],
    "skins": [
        {
            "inverseBindMatrices": 6,
            "joints": [
                4,
                5,
                6
            ],
            "name": "Ghost.001",
            "skeleton": 4
        }
    ]
}
